<svg width="22" height="28" viewBox="0 0 22 28" fill="none" xmlns="http://www.w3.org/2000/svg">
<path d="M3.375 0C1.92578 0 0.75 1.17578 0.75 2.625V25.375C0.75 26.8242 1.92578 28 3.375 28H8.625V23.625C8.625 22.1758 9.80078 21 11.25 21C12.6992 21 13.875 22.1758 13.875 23.625V28H19.125C20.5742 28 21.75 26.8242 21.75 25.375V2.625C21.75 1.17578 20.5742 0 19.125 0H3.375ZM4.25 13.125C4.25 12.6438 4.64375 12.25 5.125 12.25H6.875C7.35625 12.25 7.75 12.6438 7.75 13.125V14.875C7.75 15.3562 7.35625 15.75 6.875 15.75H5.125C4.64375 15.75 4.25 15.3562 4.25 14.875V13.125ZM10.375 12.25H12.125C12.6062 12.25 13 12.6438 13 13.125V14.875C13 15.3562 12.6062 15.75 12.125 15.75H10.375C9.89375 15.75 9.5 15.3562 9.5 14.875V13.125C9.5 12.6438 9.89375 12.25 10.375 12.25ZM14.75 13.125C14.75 12.6438 15.1438 12.25 15.625 12.25H17.375C17.8563 12.25 18.25 12.6438 18.25 13.125V14.875C18.25 15.3562 17.8563 15.75 17.375 15.75H15.625C15.1438 15.75 14.75 15.3562 14.75 14.875V13.125ZM5.125 5.25H6.875C7.35625 5.25 7.75 5.64375 7.75 6.125V7.875C7.75 8.35625 7.35625 8.75 6.875 8.75H5.125C4.64375 8.75 4.25 8.35625 4.25 7.875V6.125C4.25 5.64375 4.64375 5.25 5.125 5.25ZM9.5 6.125C9.5 5.64375 9.89375 5.25 10.375 5.25H12.125C12.6062 5.25 13 5.64375 13 6.125V7.875C13 8.35625 12.6062 8.75 12.125 8.75H10.375C9.89375 8.75 9.5 8.35625 9.5 7.875V6.125ZM15.625 5.25H17.375C17.8563 5.25 18.25 5.64375 18.25 6.125V7.875C18.25 8.35625 17.8563 8.75 17.375 8.75H15.625C15.1438 8.75 14.75 8.35625 14.75 7.875V6.125C14.75 5.64375 15.1438 5.25 15.625 5.25Z" fill="#5755C4"/>
</svg>
