<svg width="35" height="24" viewBox="0 0 35 24" fill="none" xmlns="http://www.w3.org/2000/svg">
<path d="M5.14286 1.71429C5.14286 0.766071 5.90893 0 6.85714 0H24H27.4286C31.2161 0 34.2857 3.06964 34.2857 6.85714C34.2857 10.6446 31.2161 13.7143 27.4286 13.7143H25.7143C25.7143 16.5536 23.4107 18.8571 20.5714 18.8571H10.2857C7.44643 18.8571 5.14286 16.5536 5.14286 13.7143V1.71429ZM25.7143 10.2857H27.4286C29.3196 10.2857 30.8571 8.74821 30.8571 6.85714C30.8571 4.96607 29.3196 3.42857 27.4286 3.42857H25.7143V10.2857ZM1.71429 20.5714H29.1429C30.0911 20.5714 30.8571 21.3375 30.8571 22.2857C30.8571 23.2339 30.0911 24 29.1429 24H1.71429C0.766071 24 0 23.2339 0 22.2857C0 21.3375 0.766071 20.5714 1.71429 20.5714Z" fill="white"/>
</svg>
