<svg width="30" height="25" viewBox="0 0 30 25" fill="none" xmlns="http://www.w3.org/2000/svg">
<path d="M29.1667 6.125V21.875C29.1667 23.3242 27.9419 24.5 26.4323 24.5H2.73438C1.22477 24.5 0 23.3242 0 21.875V6.125C0 4.67578 1.22477 3.5 2.73438 3.5H7.7474L8.44808 1.70078C8.84684 0.678125 9.86654 0 11.0059 0H18.1551C19.2944 0 20.3141 0.678125 20.7129 1.70078L21.4193 3.5H26.4323C27.9419 3.5 29.1667 4.67578 29.1667 6.125ZM21.4193 14C21.4193 10.3797 18.3545 7.4375 14.5833 7.4375C10.8122 7.4375 7.7474 10.3797 7.7474 14C7.7474 17.6203 10.8122 20.5625 14.5833 20.5625C18.3545 20.5625 21.4193 17.6203 21.4193 14ZM19.5964 14C19.5964 16.6523 17.3462 18.8125 14.5833 18.8125C11.8205 18.8125 9.57031 16.6523 9.57031 14C9.57031 11.3477 11.8205 9.1875 14.5833 9.1875C17.3462 9.1875 19.5964 11.3477 19.5964 14Z" fill="white"/>
</svg>
