<svg width="21" height="28" viewBox="0 0 21 28" fill="none" xmlns="http://www.w3.org/2000/svg">
<path d="M12.25 7.4375V0H1.3125C0.585156 0 0 0.585156 0 1.3125V26.6875C0 27.4148 0.585156 28 1.3125 28H19.6875C20.4148 28 21 27.4148 21 26.6875V8.75H13.5625C12.8406 8.75 12.25 8.15938 12.25 7.4375ZM15.75 20.3438C15.75 20.7047 15.4547 21 15.0938 21H5.90625C5.54531 21 5.25 20.7047 5.25 20.3438V19.9062C5.25 19.5453 5.54531 19.25 5.90625 19.25H15.0938C15.4547 19.25 15.75 19.5453 15.75 19.9062V20.3438ZM15.75 16.8438C15.75 17.2047 15.4547 17.5 15.0938 17.5H5.90625C5.54531 17.5 5.25 17.2047 5.25 16.8438V16.4062C5.25 16.0453 5.54531 15.75 5.90625 15.75H15.0938C15.4547 15.75 15.75 16.0453 15.75 16.4062V16.8438ZM15.75 12.9062V13.3438C15.75 13.7047 15.4547 14 15.0938 14H5.90625C5.54531 14 5.25 13.7047 5.25 13.3438V12.9062C5.25 12.5453 5.54531 12.25 5.90625 12.25H15.0938C15.4547 12.25 15.75 12.5453 15.75 12.9062ZM21 6.66641V7H14V0H14.3336C14.6836 0 15.0172 0.136719 15.2633 0.382812L20.6172 5.74219C20.8633 5.98828 21 6.32188 21 6.66641Z" fill="white"/>
</svg>
