<svg width="21" height="24" viewBox="0 0 21 24" fill="none" xmlns="http://www.w3.org/2000/svg">
<path d="M17.0719 3.92812C15.9281 2.78437 14.0719 2.78437 12.9281 3.92812L4.30313 12.5531C2.32969 14.5266 2.32969 17.7234 4.30313 19.6969C6.27656 21.6703 9.47344 21.6703 11.4469 19.6969L18.5719 12.5719C19.0828 12.0609 19.9172 12.0609 20.4281 12.5719C20.9391 13.0828 20.9391 13.9172 20.4281 14.4281L13.3031 21.5531C10.3031 24.5531 5.44688 24.5531 2.44688 21.5531C-0.553124 18.5531 -0.553124 13.6969 2.44688 10.6969L11.0719 2.07187C13.2422 -0.0984406 16.7578 -0.0984406 18.9281 2.07187C21.0984 4.24218 21.0984 7.75781 18.9281 9.92812L10.6781 18.1781C9.3375 19.5187 7.1625 19.5187 5.82188 18.1781C4.48125 16.8375 4.48125 14.6625 5.82188 13.3219L12.5719 6.57187C13.0828 6.06093 13.9172 6.06093 14.4281 6.57187C14.9391 7.08281 14.9391 7.91718 14.4281 8.42812L7.67813 15.1781C7.36406 15.4922 7.36406 16.0078 7.67813 16.3219C7.99219 16.6359 8.50781 16.6359 8.82188 16.3219L17.0719 8.07187C18.2156 6.92812 18.2156 5.07187 17.0719 3.92812Z" fill="white"/>
</svg>
