<svg width="35" height="28" viewBox="0 0 35 28" fill="none" xmlns="http://www.w3.org/2000/svg">
<path d="M33.25 0H8.75C8.28587 0 7.84075 0.184374 7.51256 0.512563C7.18437 0.840752 7 1.28587 7 1.75V7H15.75V3.5H26.25V21H33.25C33.7141 21 34.1592 20.8156 34.4874 20.4874C34.8156 20.1592 35 19.7141 35 19.25V1.75C35 1.28587 34.8156 0.840752 34.4874 0.512563C34.1592 0.184374 33.7141 0 33.25 0ZM12.6875 5.63281C12.6875 5.76335 12.6356 5.88854 12.5433 5.98084C12.451 6.07314 12.3258 6.125 12.1953 6.125H10.5547C10.4242 6.125 10.299 6.07314 10.2067 5.98084C10.1144 5.88854 10.0625 5.76335 10.0625 5.63281V3.99219C10.0625 3.86165 10.1144 3.73646 10.2067 3.64416C10.299 3.55186 10.4242 3.5 10.5547 3.5H12.1953C12.3258 3.5 12.451 3.55186 12.5433 3.64416C12.6356 3.73646 12.6875 3.86165 12.6875 3.99219V5.63281ZM31.9375 17.0078C31.9375 17.1383 31.8856 17.2635 31.7933 17.3558C31.701 17.4481 31.5758 17.5 31.4453 17.5H29.8047C29.6742 17.5 29.549 17.4481 29.4567 17.3558C29.3644 17.2635 29.3125 17.1383 29.3125 17.0078V15.3672C29.3125 15.2367 29.3644 15.1115 29.4567 15.0192C29.549 14.9269 29.6742 14.875 29.8047 14.875H31.4453C31.5758 14.875 31.701 14.9269 31.7933 15.0192C31.8856 15.1115 31.9375 15.2367 31.9375 15.3672V17.0078ZM31.9375 11.3203C31.9375 11.4508 31.8856 11.576 31.7933 11.6683C31.701 11.7606 31.5758 11.8125 31.4453 11.8125H29.8047C29.6742 11.8125 29.549 11.7606 29.4567 11.6683C29.3644 11.576 29.3125 11.4508 29.3125 11.3203V9.67969C29.3125 9.54915 29.3644 9.42396 29.4567 9.33166C29.549 9.23936 29.6742 9.1875 29.8047 9.1875H31.4453C31.5758 9.1875 31.701 9.23936 31.7933 9.33166C31.8856 9.42396 31.9375 9.54915 31.9375 9.67969V11.3203ZM31.9375 5.63281C31.9375 5.76335 31.8856 5.88854 31.7933 5.98084C31.701 6.07314 31.5758 6.125 31.4453 6.125H29.8047C29.6742 6.125 29.549 6.07314 29.4567 5.98084C29.3644 5.88854 29.3125 5.76335 29.3125 5.63281V3.99219C29.3125 3.86165 29.3644 3.73646 29.4567 3.64416C29.549 3.55186 29.6742 3.5 29.8047 3.5H31.4453C31.5758 3.5 31.701 3.55186 31.7933 3.64416C31.8856 3.73646 31.9375 3.86165 31.9375 3.99219V5.63281ZM22.75 8.75H1.75C1.28587 8.75 0.840752 8.93437 0.512563 9.26256C0.184374 9.59075 0 10.0359 0 10.5L0 26.25C0 26.7141 0.184374 27.1592 0.512563 27.4874C0.840752 27.8156 1.28587 28 1.75 28H22.75C23.2141 28 23.6592 27.8156 23.9874 27.4874C24.3156 27.1592 24.5 26.7141 24.5 26.25V10.5C24.5 10.0359 24.3156 9.59075 23.9874 9.26256C23.6592 8.93437 23.2141 8.75 22.75 8.75ZM5.25 12.25C5.59612 12.25 5.93446 12.3526 6.22225 12.5449C6.51003 12.7372 6.73434 13.0105 6.86679 13.3303C6.99924 13.6501 7.0339 14.0019 6.96637 14.3414C6.89885 14.6809 6.73218 14.9927 6.48744 15.2374C6.24269 15.4822 5.93087 15.6489 5.59141 15.7164C5.25194 15.7839 4.90007 15.7492 4.5803 15.6168C4.26053 15.4843 3.98722 15.26 3.79493 14.9722C3.60264 14.6845 3.5 14.3461 3.5 14C3.5 13.5359 3.68437 13.0908 4.01256 12.7626C4.34075 12.4344 4.78587 12.25 5.25 12.25ZM21 24.5H3.5V22.75L7 19.25L8.75 21L15.75 14L21 19.25V24.5Z" fill="white"/>
</svg>
