<svg width="32" height="28" viewBox="0 0 32 28" fill="none" xmlns="http://www.w3.org/2000/svg">
<path d="M31.7391 13.9727C31.7391 14.957 30.9187 15.7281 29.9891 15.7281H28.2391L28.2773 24.4891C28.2773 24.6367 28.2664 24.7844 28.25 24.932V25.8125C28.25 27.0211 27.2711 28 26.0625 28H25.1875C25.1273 28 25.0672 28 25.007 27.9945C24.9305 28 24.8539 28 24.7773 28H23H21.6875C20.4789 28 19.5 27.0211 19.5 25.8125V24.5V21C19.5 20.032 18.718 19.25 17.75 19.25H14.25C13.282 19.25 12.5 20.032 12.5 21V24.5V25.8125C12.5 27.0211 11.5211 28 10.3125 28H9H7.25547C7.17344 28 7.09141 27.9945 7.00937 27.9891C6.94375 27.9945 6.87812 28 6.8125 28H5.9375C4.72891 28 3.75 27.0211 3.75 25.8125V19.6875C3.75 19.6383 3.75 19.5836 3.75547 19.5344V15.7281H2C1.01562 15.7281 0.25 14.9625 0.25 13.9727C0.25 13.4805 0.414062 13.043 0.796875 12.6602L14.8187 0.4375C15.2016 0.0546875 15.6391 0 16.0219 0C16.4047 0 16.8422 0.109375 17.1703 0.382812L31.1375 12.6602C31.575 13.043 31.7937 13.4805 31.7391 13.9727Z" fill="#5755C4"/>
</svg>
