<svg width="19" height="28" viewBox="0 0 19 28" fill="none" xmlns="http://www.w3.org/2000/svg">
<path d="M6.8748 2.625C6.8748 1.92881 7.15136 1.26113 7.64364 0.768845C8.13592 0.276562 8.8036 0 9.4998 0C10.196 0 10.8637 0.276562 11.356 0.768845C11.8482 1.26113 12.1248 1.92881 12.1248 2.625C12.1248 3.32119 11.8482 3.98887 11.356 4.48116C10.8637 4.97344 10.196 5.25 9.4998 5.25C8.8036 5.25 8.13592 4.97344 7.64364 4.48116C7.15136 3.98887 6.8748 3.32119 6.8748 2.625ZM9.0623 19.25V26.25C9.0623 27.218 8.28027 28 7.3123 28C6.34433 28 5.5623 27.218 5.5623 26.25V14.0492L3.99823 16.6523C3.50058 17.4781 2.42323 17.7461 1.59745 17.2484C0.771671 16.7508 0.503702 15.6734 1.00136 14.8477L4.18964 9.54297C5.1412 7.9625 6.84745 6.99453 8.69042 6.99453H10.3146C12.1576 6.99453 13.8639 7.9625 14.8154 9.54297L18.0037 14.8477C18.5014 15.6734 18.2334 16.7508 17.4076 17.2484C16.5818 17.7461 15.5045 17.4781 15.0068 16.6523L13.4373 14.0492V26.25C13.4373 27.218 12.6553 28 11.6873 28C10.7193 28 9.9373 27.218 9.9373 26.25V19.25H9.0623Z" fill="#5755C4"/>
</svg>
