<svg width="33" height="28" viewBox="0 0 33 28" fill="none" xmlns="http://www.w3.org/2000/svg">
<path d="M3.04292 16.5187L14.5945 27.3032C15.074 27.7507 15.7069 28 16.3653 28C17.0237 28 17.6566 27.7507 18.1361 27.3032L29.6877 16.5187C31.6311 14.7096 32.7306 12.1717 32.7306 9.51872V9.14795C32.7306 4.67945 29.5023 0.869407 25.0977 0.134247C22.1826 -0.351598 19.2164 0.600914 17.1324 2.68493L16.3653 3.45206L15.5982 2.68493C13.5142 0.600914 10.5479 -0.351598 7.63288 0.134247C3.22831 0.869407 0 4.67945 0 9.14795V9.51872C0 12.1717 1.09954 14.7096 3.04292 16.5187Z" fill="red"/>
</svg>
