<svg width="24" height="28" viewBox="0 0 24 28" fill="none" xmlns="http://www.w3.org/2000/svg">
<path d="M13.4812 27.3C16.6875 23.7891 24 15.2797 24 10.5C24 4.70312 18.625 0 12 0C5.375 0 0 4.70312 0 10.5C0 15.2797 7.3125 23.7891 10.5188 27.3C11.2875 28.1367 12.7125 28.1367 13.4812 27.3ZM12 7C13.0609 7 14.0783 7.36875 14.8284 8.02513C15.5786 8.6815 16 9.57174 16 10.5C16 11.4283 15.5786 12.3185 14.8284 12.9749C14.0783 13.6313 13.0609 14 12 14C10.9391 14 9.92172 13.6313 9.17157 12.9749C8.42143 12.3185 8 11.4283 8 10.5C8 9.57174 8.42143 8.6815 9.17157 8.02513C9.92172 7.36875 10.9391 7 12 7Z" fill="white"/>
</svg>
