<svg width="28" height="28" viewBox="0 0 28 28" fill="none" xmlns="http://www.w3.org/2000/svg">
<path d="M0 2.33333C0 1.04271 0.89375 0 2 0H26C27.1063 0 28 1.04271 28 2.33333C28 3.62396 27.1063 4.66667 26 4.66667H2C0.89375 4.66667 0 3.62396 0 2.33333ZM0 14C0 12.7094 0.89375 11.6667 2 11.6667H26C27.1063 11.6667 28 12.7094 28 14C28 15.2906 27.1063 16.3333 26 16.3333H2C0.89375 16.3333 0 15.2906 0 14ZM28 25.6667C28 26.9573 27.1063 28 26 28H2C0.89375 28 0 26.9573 0 25.6667C0 24.376 0.89375 23.3333 2 23.3333H26C27.1063 23.3333 28 24.376 28 25.6667Z" fill="#5755C4"/>
</svg>
