<svg width="29" height="26" viewBox="0 0 29 26" fill="none" xmlns="http://www.w3.org/2000/svg">
<path d="M28.25 12.125C28.25 18.4086 21.9828 23.5 14.25 23.5C12.2211 23.5 10.2961 23.15 8.55707 22.5211C7.90628 22.9969 6.84535 23.6477 5.58753 24.1945C4.27503 24.7633 2.69457 25.25 1.12503 25.25C0.769566 25.25 0.452379 25.0367 0.31566 24.7086C0.178941 24.3805 0.255504 24.0086 0.501597 23.757L0.518004 23.7406C0.53441 23.7242 0.556285 23.7023 0.589097 23.6641C0.649254 23.5984 0.742222 23.4945 0.857066 23.3523C1.08128 23.0789 1.38207 22.6742 1.68832 22.1711C2.23519 21.2633 2.75472 20.0711 2.85863 18.7312C1.218 16.8719 0.250035 14.5914 0.250035 12.125C0.250035 5.84141 6.51722 0.75 14.25 0.75C21.9828 0.75 28.25 5.84141 28.25 12.125Z" fill="#5755C4"/>
</svg>
