<svg width="25" height="28" viewBox="0 0 25 28" fill="none" xmlns="http://www.w3.org/2000/svg">
<path d="M12.2501 0C11.2822 0 10.5001 0.782031 10.5001 1.75V2.8C6.50796 3.60938 3.50015 7.14219 3.50015 11.375V12.4031C3.50015 14.9734 2.55406 17.4562 0.847805 19.3813L0.443118 19.8352C-0.0162571 20.3492 -0.125632 21.0875 0.153274 21.7164C0.43218 22.3453 1.06109 22.75 1.75015 22.75H22.7501C23.4392 22.75 24.0627 22.3453 24.347 21.7164C24.6314 21.0875 24.5166 20.3492 24.0572 19.8352L23.6525 19.3813C21.9462 17.4562 21.0001 14.9789 21.0001 12.4031V11.375C21.0001 7.14219 17.9923 3.60938 14.0001 2.8V1.75C14.0001 0.782031 13.2181 0 12.2501 0ZM14.7275 26.9773C15.3837 26.3211 15.7501 25.4297 15.7501 24.5H12.2501H8.75015C8.75015 25.4297 9.11655 26.3211 9.7728 26.9773C10.4291 27.6336 11.3205 28 12.2501 28C13.1798 28 14.0712 27.6336 14.7275 26.9773Z" fill="#5755C4"/>
</svg>
