<svg width="28" height="28" viewBox="0 0 28 28" fill="none" xmlns="http://www.w3.org/2000/svg">
<path d="M19.8351 1.05542L17.1883 3.70229L24.2976 10.8117L26.9445 8.16479C28.3117 6.79761 28.3117 4.58276 26.9445 3.21558L24.7898 1.05542C23.4226 -0.311768 21.2078 -0.311768 19.8406 1.05542H19.8351ZM15.9523 4.93823L3.20467 17.6914C2.63592 18.2601 2.2203 18.9656 1.99061 19.7367L0.0546747 26.3156C-0.0820441 26.7804 0.0437372 27.2781 0.3828 27.6171C0.721862 27.9562 1.21952 28.082 1.67889 27.9507L8.2578 26.0148C9.02889 25.7851 9.73436 25.3695 10.3031 24.8007L23.0617 12.0476L15.9523 4.93823Z" fill="white"/>
</svg>
