<svg width="21" height="18" viewBox="0 0 21 18" fill="none" xmlns="http://www.w3.org/2000/svg">
<path d="M4.97128 14.4362C5.48958 14.0585 6.16057 13.9621 6.76324 14.179C7.82798 14.5647 9.02128 14.7857 10.2909 14.7857C15.3012 14.7857 18.6481 11.5513 18.6481 8.35714C18.6481 5.16295 15.3012 1.92857 10.2909 1.92857C5.28066 1.92857 1.93378 5.16295 1.93378 8.35714C1.93378 9.64286 2.43199 10.8804 3.36816 11.9411C3.71369 12.3308 3.88244 12.8451 3.84226 13.3674C3.78601 14.0946 3.61324 14.7616 3.38824 15.3522C4.07128 15.0348 4.6378 14.6813 4.97128 14.4402V14.4362ZM0.856995 16.0674C0.929317 15.9589 0.99762 15.8504 1.06191 15.742C1.46369 15.075 1.84539 14.1991 1.92173 13.2147C0.71637 11.8446 0.00520936 10.1692 0.00520936 8.35714C0.00520936 3.74063 4.60967 0 10.2909 0C15.9722 0 20.5766 3.74063 20.5766 8.35714C20.5766 12.9737 15.9722 16.7143 10.2909 16.7143C8.8003 16.7143 7.38601 16.4571 6.10833 15.9951C5.63021 16.3446 4.85074 16.8228 3.92664 17.2246C3.31994 17.4897 2.62887 17.7308 1.91369 17.8714C1.88155 17.8795 1.84941 17.8835 1.81726 17.8915C1.64048 17.9237 1.46771 17.9518 1.28691 17.9679C1.27887 17.9679 1.26682 17.9719 1.25878 17.9719C1.05387 17.992 0.848959 18.004 0.644049 18.004C0.382888 18.004 0.149852 17.8473 0.0494058 17.6063C-0.0510406 17.3652 0.00520935 17.092 0.186013 16.9071C0.350745 16.7384 0.499406 16.5576 0.640031 16.3647C0.708334 16.2723 0.77262 16.1799 0.832888 16.0875L0.844941 16.0674H0.856995Z" fill="#F9F9F9"/>
</svg>
