<svg width="21" height="18" viewBox="0 0 21 18" fill="none" xmlns="http://www.w3.org/2000/svg">
<path d="M12.7397 1.02744L12.7397 1.02747L12.7463 1.02448C12.8457 0.979513 12.963 0.997229 13.0456 1.07198L13.0474 1.07355L19.4757 6.85901L19.4769 6.8601C19.5369 6.91396 19.5705 6.98805 19.5705 7.07192C19.5705 7.14872 19.538 7.22739 19.4728 7.28742C19.4723 7.28784 19.4719 7.28826 19.4714 7.28868L13.05 13.0679C13.0498 13.0682 13.0495 13.0684 13.0492 13.0686C12.9661 13.1424 12.8464 13.1633 12.7367 13.1151C12.638 13.0717 12.5709 12.9715 12.5709 12.8574V10.2861V9.28606H11.5709H7.71394C5.03229 9.28606 2.85697 11.4614 2.85697 14.143C2.85697 15.0225 3.07271 15.7104 3.35824 16.2342C2.31091 15.3182 1 13.6328 1 10.9289C1 7.57599 3.71821 4.85778 7.07111 4.85778H11.5709H12.5709V3.85778V1.28647C12.5709 1.17646 12.6385 1.07231 12.7397 1.02744Z" stroke="white" stroke-width="2"/>
</svg>
