<svg width="21" height="18" viewBox="0 0 21 18" fill="none" xmlns="http://www.w3.org/2000/svg">
<path d="M13.4536 0.112495C11.9755 -0.325452 10.4316 0.562494 10.0099 2.09732L9.78932 2.90089C9.64615 3.42321 9.3869 3.90535 9.03479 4.30714L7.04979 6.57321C6.70541 6.96696 6.7325 7.57767 7.1117 7.93526C7.4909 8.29285 8.07905 8.26473 8.42342 7.87098L10.4084 5.60491C10.954 4.98214 11.3526 4.23883 11.5731 3.43124L11.7937 2.62767C11.933 2.11741 12.4476 1.82008 12.9429 1.96473C13.4382 2.10937 13.7206 2.64374 13.5813 3.15803L13.3608 3.9616C13.1402 4.76116 12.792 5.51651 12.3315 6.19151C12.1303 6.48482 12.1071 6.87053 12.2657 7.19196C12.4244 7.51339 12.7417 7.71428 13.0899 7.71428H18.2594C18.5999 7.71428 18.8785 8.00357 18.8785 8.35714C18.8785 8.63035 18.7122 8.86741 18.4761 8.95982C18.1898 9.07232 17.9731 9.32142 17.8996 9.6308C17.8261 9.94017 17.9035 10.2656 18.1047 10.5027C18.2014 10.6152 18.2594 10.7638 18.2594 10.9286C18.2594 11.242 18.0427 11.5031 17.7564 11.5594C17.4391 11.6237 17.1721 11.8527 17.0599 12.1701C16.9477 12.4875 16.998 12.8411 17.1992 13.1062C17.2805 13.2147 17.3308 13.3513 17.3308 13.504C17.3308 13.7732 17.1683 14.0103 16.9361 14.1027C16.4911 14.2835 16.2512 14.7817 16.3789 15.2598C16.3944 15.312 16.4021 15.3723 16.4021 15.4326C16.4021 15.7862 16.1235 16.0754 15.783 16.0754H12.0104C11.5228 16.0754 11.043 15.9268 10.6367 15.6455L8.2493 13.9942C7.82367 13.6969 7.24713 13.8174 6.96079 14.2634C6.67445 14.7094 6.79054 15.304 7.22004 15.6013L9.60746 17.2527C10.3194 17.7469 11.1552 18.008 12.0104 18.008H15.783C17.1257 18.008 18.2169 16.8991 18.2594 15.517C18.8244 15.0469 19.1881 14.3237 19.1881 13.508C19.1881 13.3272 19.1687 13.1545 19.1378 12.9857C19.7337 12.5156 20.1167 11.7723 20.1167 10.9366C20.1167 10.6754 20.0781 10.4223 20.0084 10.1853C20.4573 9.71116 20.7358 9.0683 20.7358 8.35714C20.7358 6.93883 19.6292 5.78571 18.2594 5.78571H14.688C14.8698 5.36785 15.0246 4.93392 15.1446 4.49196L15.3651 3.68839C15.7869 2.15357 14.9318 0.550441 13.4536 0.112495ZM2.16274 6.42857C1.47785 6.42857 0.924528 7.00312 0.924528 7.71428V16.7143C0.924528 17.4254 1.47785 18 2.16274 18H4.63915C5.32403 18 5.87736 17.4254 5.87736 16.7143V7.71428C5.87736 7.00312 5.32403 6.42857 4.63915 6.42857H2.16274Z" fill="white"/>
</svg>
