<svg width="28" height="28" viewBox="0 0 28 28" fill="none" xmlns="http://www.w3.org/2000/svg">
<path d="M24.5 14C24.5 12.6211 24.2284 11.2557 23.7007 9.98182C23.1731 8.7079 22.3996 7.55039 21.4246 6.57538C20.4496 5.60036 19.2921 4.82694 18.0182 4.29926C16.7443 3.77159 15.3789 3.5 14 3.5C12.6211 3.5 11.2557 3.77159 9.98182 4.29926C8.7079 4.82694 7.55039 5.60036 6.57538 6.57538C5.60036 7.55039 4.82694 8.7079 4.29926 9.98182C3.77159 11.2557 3.5 12.6211 3.5 14C3.5 15.3789 3.77159 16.7443 4.29926 18.0182C4.82694 19.2921 5.60036 20.4496 6.57538 21.4246C7.55039 22.3996 8.7079 23.1731 9.98182 23.7007C11.2557 24.2284 12.6211 24.5 14 24.5C15.3789 24.5 16.7443 24.2284 18.0182 23.7007C19.2921 23.1731 20.4496 22.3996 21.4246 21.4246C22.3996 20.4496 23.1731 19.2921 23.7007 18.0182C24.2284 16.7443 24.5 15.3789 24.5 14ZM0 14C0 10.287 1.475 6.72601 4.10051 4.10051C6.72601 1.475 10.287 0 14 0C17.713 0 21.274 1.475 23.8995 4.10051C26.525 6.72601 28 10.287 28 14C28 17.713 26.525 21.274 23.8995 23.8995C21.274 26.525 17.713 28 14 28C10.287 28 6.72601 26.525 4.10051 23.8995C1.475 21.274 0 17.713 0 14ZM14 18.375C15.1603 18.375 16.2731 17.9141 17.0936 17.0936C17.9141 16.2731 18.375 15.1603 18.375 14C18.375 12.8397 17.9141 11.7269 17.0936 10.9064C16.2731 10.0859 15.1603 9.625 14 9.625C12.8397 9.625 11.7269 10.0859 10.9064 10.9064C10.0859 11.7269 9.625 12.8397 9.625 14C9.625 15.1603 10.0859 16.2731 10.9064 17.0936C11.7269 17.9141 12.8397 18.375 14 18.375ZM14 6.125C16.0886 6.125 18.0916 6.95469 19.5685 8.43153C21.0453 9.90838 21.875 11.9114 21.875 14C21.875 16.0886 21.0453 18.0916 19.5685 19.5685C18.0916 21.0453 16.0886 21.875 14 21.875C11.9114 21.875 9.90838 21.0453 8.43153 19.5685C6.95469 18.0916 6.125 16.0886 6.125 14C6.125 11.9114 6.95469 9.90838 8.43153 8.43153C9.90838 6.95469 11.9114 6.125 14 6.125ZM12.25 14C12.25 13.5359 12.4344 13.0908 12.7626 12.7626C13.0908 12.4344 13.5359 12.25 14 12.25C14.4641 12.25 14.9092 12.4344 15.2374 12.7626C15.5656 13.0908 15.75 13.5359 15.75 14C15.75 14.4641 15.5656 14.9092 15.2374 15.2374C14.9092 15.5656 14.4641 15.75 14 15.75C13.5359 15.75 13.0908 15.5656 12.7626 15.2374C12.4344 14.9092 12.25 14.4641 12.25 14Z" fill="white"/>
</svg>
