<svg width="27" height="23" viewBox="0 0 27 23" fill="none" xmlns="http://www.w3.org/2000/svg">
<path d="M25.4906 13.4813C26.2875 13.4813 26.9906 12.825 26.9906 11.9766C27.0375 11.5547 26.85 11.1797 26.475 10.8516L14.5078 0.328125C14.2266 0.09375 13.8516 0 13.5234 0C13.1953 0 12.8203 0.046875 12.4922 0.375L0.46875 10.8516C0.140625 11.1797 0 11.5547 0 11.9766C0 12.8203 0.65625 13.4813 1.5 13.4813H3V21C3 22.6547 4.34531 24 6 24H10.7953L9.32812 21.5531C9.13594 21.2344 9.20625 20.8266 9.49219 20.5922L13.5 17.25L10.6781 13.3688C10.1672 12.6656 11.0625 11.7984 11.7469 12.3375L17.2734 16.6781C17.6484 16.9734 17.6578 17.5406 17.2922 17.8453L13.5 21L15.3 24H21.0234C22.6875 24 24.0328 22.65 24.0234 20.9859L23.9906 13.4766H25.4906V13.4813Z" fill="white"/>
</svg>
