<svg width="24" height="24" viewBox="0 0 24 24" fill="none" xmlns="http://www.w3.org/2000/svg">
<path d="M10.6667 1.5C10.6667 0.670312 10.0708 0 9.33333 0C8.59583 0 8 0.670312 8 1.5V9H10.6667V1.5ZM24 1.5C24 0.670312 23.4042 0 22.6667 0C21.9292 0 21.3333 0.670312 21.3333 1.5V22.5C21.3333 23.3297 21.9292 24 22.6667 24C23.4042 24 24 23.3297 24 22.5V1.5ZM9.33333 24C10.0708 24 10.6667 23.3297 10.6667 22.5V15H8V22.5C8 23.3297 8.59583 24 9.33333 24ZM13.3333 0C12.9458 0 12.5792 0.1875 12.325 0.515625C12.0708 0.84375 11.9583 1.27969 12.0125 1.71094L13.3125 11.9578L12.025 19.2047C11.8792 20.0156 12.35 20.8078 13.0708 20.9719C13.7917 21.1359 14.4958 20.6062 14.6417 19.7953L14.6708 19.6266C14.725 20.3953 15.3 21.0047 16 21.0047C16.7375 21.0047 17.3333 20.3344 17.3333 19.5047C17.3333 20.3344 17.9292 21.0047 18.6667 21.0047C19.4042 21.0047 20 20.3344 20 19.5047V1.50469C20 0.675 19.4042 0.0046875 18.6667 0.0046875L13.3333 0ZM4.66667 3.75C4.66667 3.45453 4.61493 3.16194 4.51443 2.88896C4.41392 2.61598 4.2666 2.36794 4.08088 2.15901C3.89516 1.95008 3.67468 1.78434 3.43203 1.67127C3.18938 1.5582 2.92931 1.5 2.66667 1.5C2.40402 1.5 2.14395 1.5582 1.9013 1.67127C1.65865 1.78434 1.43817 1.95008 1.25245 2.15901C1.06674 2.36794 0.919417 2.61598 0.818908 2.88896C0.718398 3.16194 0.666667 3.45453 0.666667 3.75C0.666667 4.04547 0.718398 4.33806 0.818908 4.61104C0.919417 4.88402 1.06674 5.13206 1.25245 5.34099C1.43817 5.54992 1.65865 5.71566 1.9013 5.82873C2.14395 5.9418 2.40402 6 2.66667 6C2.92931 6 3.18938 5.9418 3.43203 5.82873C3.67468 5.71566 3.89516 5.54992 4.08088 5.34099C4.2666 5.13206 4.41392 4.88402 4.51443 4.61104C4.61493 4.33806 4.66667 4.04547 4.66667 3.75ZM4.66667 15.9984V12.6188L4.8625 12.8391C5.2375 13.2609 5.74583 13.5 6.275 13.5H9.33333C10.0708 13.5 10.6667 12.8297 10.6667 12C10.6667 11.1703 10.0708 10.5 9.33333 10.5H6.55417L4.82083 8.55C4.225 7.87969 3.4125 7.5 2.57083 7.5C1.15 7.5 0 8.79375 0 10.3875V12.9984V13.0406V22.5C0 23.3297 0.595833 24 1.33333 24C2.07083 24 2.66667 23.3297 2.66667 22.5V18L4 20.0016V22.5C4 23.3297 4.59583 24 5.33333 24C6.07083 24 6.66667 23.3297 6.66667 22.5V19.7484C6.66667 19.2609 6.525 18.7875 6.26667 18.3984L4.66667 15.9984Z" fill="white"/>
</svg>
