<svg width="28" height="28" viewBox="0 0 28 28" fill="none" xmlns="http://www.w3.org/2000/svg">
<path d="M27.1213 6.12131L21.8787 0.878687C21.3161 0.316077 20.553 4.16048e-06 19.7574 0H3C1.34312 0 0 1.34312 0 3V25C0 26.6569 1.34312 28 3 28H25C26.6569 28 28 26.6569 28 25V8.24263C28 7.44698 27.6839 6.68392 27.1213 6.12131ZM14 24C11.7909 24 10 22.2091 10 20C10 17.7909 11.7909 16 14 16C16.2091 16 18 17.7909 18 20C18 22.2091 16.2091 24 14 24ZM20 4.9675V11.25C20 11.6642 19.6642 12 19.25 12H4.75C4.33581 12 4 11.6642 4 11.25V4.75C4 4.33581 4.33581 4 4.75 4H19.0325C19.2314 4 19.4222 4.079 19.5628 4.21969L19.7803 4.43719C19.85 4.50682 19.9052 4.58949 19.9429 4.68049C19.9806 4.77148 20 4.86901 20 4.9675Z" fill="#5755C4"/>
</svg>
