<svg width="24" height="24" viewBox="0 0 24 24" fill="none" xmlns="http://www.w3.org/2000/svg">
<path d="M23.3482 0.262412C23.8216 0.590537 24.0701 1.15772 23.981 1.72491L20.981 21.2249C20.9107 21.6796 20.6341 22.078 20.231 22.303C19.8279 22.528 19.3451 22.5562 18.9185 22.378L13.3123 20.0483L10.1013 23.5218C9.68413 23.9765 9.02788 24.1265 8.45132 23.9015C7.87476 23.6765 7.49976 23.1187 7.49976 22.4999V18.5812C7.49976 18.3937 7.57007 18.2155 7.69663 18.0749L15.5529 9.50616C15.8248 9.21085 15.8154 8.75616 15.5341 8.47491C15.2529 8.19366 14.7982 8.17491 14.5029 8.4421L4.96851 16.9124L0.829443 14.8405C0.332568 14.5921 0.0138183 14.0952 -0.000244193 13.5421C-0.0143067 12.989 0.276318 12.4733 0.754443 12.1968L21.7544 0.196787C22.256 -0.0891503 22.8748 -0.0610253 23.3482 0.262412Z" fill="white"/>
</svg>
