<svg width="24" height="24" viewBox="0 0 24 24" fill="none" xmlns="http://www.w3.org/2000/svg">
<path d="M12 0C18.3 0 22.5 1.65 22.5 3.75V4.5V6C23.3297 6 24 6.67031 24 7.5V10.5C24 11.3297 23.3297 12 22.5 12V19.5C22.5 20.3297 21.8297 21 21 21V22.5C21 23.3297 20.3297 24 19.5 24H18C17.1703 24 16.5 23.3297 16.5 22.5V21H7.5V22.5C7.5 23.3297 6.82969 24 6 24H4.5C3.67031 24 3 23.3297 3 22.5V21C2.17031 21 1.5 20.3297 1.5 19.5V12C0.670312 12 0 11.3297 0 10.5V7.5C0 6.67031 0.670312 6 1.5 6V4.5V3.75C1.5 1.65 5.7 0 12 0ZM4.5 7.5V12C4.5 12.8297 5.17031 13.5 6 13.5H11.25V6H6C5.17031 6 4.5 6.67031 4.5 7.5ZM12.75 13.5H18C18.8297 13.5 19.5 12.8297 19.5 12V7.5C19.5 6.67031 18.8297 6 18 6H12.75V13.5ZM5.25 18.75C5.64782 18.75 6.02936 18.592 6.31066 18.3107C6.59196 18.0294 6.75 17.6478 6.75 17.25C6.75 16.8522 6.59196 16.4706 6.31066 16.1893C6.02936 15.908 5.64782 15.75 5.25 15.75C4.85218 15.75 4.47064 15.908 4.18934 16.1893C3.90804 16.4706 3.75 16.8522 3.75 17.25C3.75 17.6478 3.90804 18.0294 4.18934 18.3107C4.47064 18.592 4.85218 18.75 5.25 18.75ZM18.75 18.75C19.1478 18.75 19.5294 18.592 19.8107 18.3107C20.092 18.0294 20.25 17.6478 20.25 17.25C20.25 16.8522 20.092 16.4706 19.8107 16.1893C19.5294 15.908 19.1478 15.75 18.75 15.75C18.3522 15.75 17.9706 15.908 17.6893 16.1893C17.408 16.4706 17.25 16.8522 17.25 17.25C17.25 17.6478 17.408 18.0294 17.6893 18.3107C17.9706 18.592 18.3522 18.75 18.75 18.75ZM16.5 3.75C16.5 3.3375 16.1625 3 15.75 3H8.25C7.8375 3 7.5 3.3375 7.5 3.75C7.5 4.1625 7.8375 4.5 8.25 4.5H15.75C16.1625 4.5 16.5 4.1625 16.5 3.75Z" fill="white"/>
</svg>
