<svg width="33" height="27" viewBox="0 0 33 27" fill="none" xmlns="http://www.w3.org/2000/svg">
<path d="M25.1636 10.1247H17.3261V13.0781C17.3261 15.1718 15.6607 16.8753 13.6137 16.8753C11.5666 16.8753 9.90116 15.1718 9.90116 13.0781V6.66505L6.55476 8.72186C5.5596 9.32836 4.95117 10.4306 4.95117 11.6119V14.1065L0.826175 16.543C0.0372697 17.0071 -0.236011 18.0408 0.222894 18.8477L4.34789 26.1573C4.80164 26.9642 5.81226 27.2385 6.60116 26.7744L11.9327 23.6259H18.9761C20.7963 23.6259 22.2761 22.1123 22.2761 20.2506H23.1011C24.0138 20.2506 24.7511 19.4964 24.7511 18.5629V15.1876H25.1636C25.8494 15.1876 26.4011 14.6233 26.4011 13.9219V11.3904C26.4011 10.689 25.8494 10.1247 25.1636 10.1247ZM32.7794 8.15228L28.6544 0.84268C28.2007 0.0357763 27.19 -0.238466 26.4011 0.225636L21.0696 3.37414H15.7999C15.1811 3.37414 14.5779 3.55346 14.0519 3.88571L12.3246 4.98795C11.8399 5.29384 11.5512 5.83705 11.5512 6.41717V13.0781C11.5512 14.2436 12.4741 15.1876 13.6137 15.1876C14.7532 15.1876 15.6761 14.2436 15.6761 13.0781V8.43707H25.1636C26.7569 8.43707 28.0511 9.76082 28.0511 11.3904V12.8935L32.1761 10.457C32.965 9.98759 33.2331 8.95919 32.7794 8.15228Z" fill="white"/>
</svg>
