<svg width="48" height="56" viewBox="0 0 48 56" fill="none" xmlns="http://www.w3.org/2000/svg">
<path d="M24 28C27.6373 28 31.1255 26.525 33.6975 23.8995C36.2694 21.274 37.7143 17.713 37.7143 14C37.7143 10.287 36.2694 6.72601 33.6975 4.10051C31.1255 1.475 27.6373 0 24 0C20.3627 0 16.8745 1.475 14.3025 4.10051C11.7306 6.72601 10.2857 10.287 10.2857 14C10.2857 17.713 11.7306 21.274 14.3025 23.8995C16.8745 26.525 20.3627 28 24 28ZM19.1036 33.25C8.55 33.25 0 41.9781 0 52.7516C0 54.5453 1.425 56 3.18214 56H44.8179C46.575 56 48 54.5453 48 52.7516C48 41.9781 39.45 33.25 28.8964 33.25H19.1036Z" fill="white"/>
</svg>
