<svg width="25" height="28" viewBox="0 0 25 28" fill="none" xmlns="http://www.w3.org/2000/svg">
<path d="M12.25 14C14.1065 14 15.887 13.2625 17.1997 11.9497C18.5125 10.637 19.25 8.85652 19.25 7C19.25 5.14348 18.5125 3.36301 17.1997 2.05025C15.887 0.737498 14.1065 0 12.25 0C10.3935 0 8.61301 0.737498 7.30025 2.05025C5.9875 3.36301 5.25 5.14348 5.25 7C5.25 8.85652 5.9875 10.637 7.30025 11.9497C8.61301 13.2625 10.3935 14 12.25 14ZM9.75078 16.625C4.36406 16.625 0 20.9891 0 26.3758C0 27.2727 0.727344 28 1.62422 28H22.8758C23.7727 28 24.5 27.2727 24.5 26.3758C24.5 20.9891 20.1359 16.625 14.7492 16.625H9.75078Z" fill="#5755C4"/>
</svg>
